<?xml version="1.0" encoding="UTF-8" standalone="no"?>
<!-- Created with Inkscape (http://www.inkscape.org/) -->

<svg
   width="61.816509mm"
   height="61.816505mm"
   viewBox="0 0 61.816509 61.816505"
   version="1.1"
   id="svg5"
   inkscape:version="1.2.2 (732a01da63, 2022-12-09)"
   sodipodi:docname="placeCoin.svg"
   xmlns:inkscape="http://www.inkscape.org/namespaces/inkscape"
   xmlns:sodipodi="http://sodipodi.sourceforge.net/DTD/sodipodi-0.dtd"
   xmlns="http://www.w3.org/2000/svg"
   xmlns:svg="http://www.w3.org/2000/svg">
  <sodipodi:namedview
     id="namedview7"
     pagecolor="#505050"
     bordercolor="#eeeeee"
     borderopacity="1"
     inkscape:showpageshadow="0"
     inkscape:pageopacity="0"
     inkscape:pagecheckerboard="0"
     inkscape:deskcolor="#505050"
     inkscape:document-units="mm"
     showgrid="false"
     inkscape:zoom="0.50646226"
     inkscape:cx="-369.2279"
     inkscape:cy="362.31722"
     inkscape:window-width="1920"
     inkscape:window-height="991"
     inkscape:window-x="-9"
     inkscape:window-y="-9"
     inkscape:window-maximized="1"
     inkscape:current-layer="layer1" />
  <defs
     id="defs2">
    <clipPath
       clipPathUnits="userSpaceOnUse"
       id="clipPath8993">
      <g
         inkscape:label="Clip"
         id="use8995"
         style="display:inline" />
    </clipPath>
  </defs>
  <g
     inkscape:label="Layer 1"
     inkscape:groupmode="layer"
     id="layer1"
     transform="translate(-62.212162,-81.019283)">
    <g
       id="g6171"
       inkscape:label="coin"
       style="display:inline">
      <path
         id="path2022"
         style="display:inline;fill:#5bc9f4;fill-opacity:1;stroke:#227cff;stroke-width:2;stroke-dasharray:none;stroke-opacity:1"
         inkscape:label="outer"
         d="m 93.120414,82.019283 a 29.908239,29.908239 0 0 0 -29.908252,29.908247 29.908239,29.908239 0 0 0 29.908252,29.90826 29.908239,29.908239 0 0 0 25.998926,-15.15153 l -1.56217,-3.41582 3.2675,-0.12092 a 29.908239,29.908239 0 0 0 2.204,-11.21999 29.908239,29.908239 0 0 0 -29.908256,-29.908247 z" />
      <path
         id="path2141"
         style="color:#000000;display:inline;fill:#227cff;stroke-width:1;stroke-dasharray:none;fill-opacity:1"
         d="m 92.490934,82.042993 a 29.908239,29.908239 0 0 0 -2.729549,0.186552 l 31.502465,19.582785 a 29.908239,29.908239 0 0 0 -1.04076,-2.531113 z m -13.172839,3.374471 a 29.908239,29.908239 0 0 0 -1.598352,0.889352 l 45.196207,28.095444 a 29.908239,29.908239 0 0 0 0.0868,-1.8309 z m -8.316289,6.392892 a 29.908239,29.908239 0 0 0 -1.055232,1.226281 l 48.575326,30.196093 2.30271,-0.0853 a 29.908239,29.908239 0 0 0 0.10852,-0.29869 z m -5.315437,8.258414 a 29.908239,29.908239 0 0 0 -0.607715,1.50688 l 49.728226,30.91026 a 29.908239,29.908239 0 0 0 1.07849,-1.21181 z m -2.407089,10.06605 a 29.908239,29.908239 0 0 0 -0.06718,1.79265 29.908239,29.908239 0 0 0 0.0021,0.0512 l 43.08626,26.78338 a 29.908239,29.908239 0 0 0 1.63142,-0.87023 z m 2.052588,12.83901 a 29.908239,29.908239 0 0 0 1.217497,2.64066 l 26.064042,16.20212 a 29.908239,29.908239 0 0 0 0.506946,0.0191 29.908239,29.908239 0 0 0 2.391585,-0.10181 z"
         inkscape:label="stripes" />
    </g>
  </g>
</svg>
