<?xml version="1.0" encoding="UTF-8" standalone="no"?>
<!-- Created with Inkscape (http://www.inkscape.org/) -->

<svg
   width="157.88994mm"
   height="37.831245mm"
   viewBox="0 0 157.88994 37.831245"
   version="1.1"
   id="svg5"
   inkscape:version="1.2.2 (732a01da63, 2022-12-09)"
   sodipodi:docname="logo.svg"
   xmlns:inkscape="http://www.inkscape.org/namespaces/inkscape"
   xmlns:sodipodi="http://sodipodi.sourceforge.net/DTD/sodipodi-0.dtd"
   xmlns="http://www.w3.org/2000/svg"
   xmlns:svg="http://www.w3.org/2000/svg">
  <sodipodi:namedview
     id="namedview7"
     pagecolor="#505050"
     bordercolor="#eeeeee"
     borderopacity="1"
     inkscape:showpageshadow="0"
     inkscape:pageopacity="0"
     inkscape:pagecheckerboard="0"
     inkscape:deskcolor="#505050"
     inkscape:document-units="mm"
     showgrid="false"
     inkscape:zoom="1.4324916"
     inkscape:cx="187.08661"
     inkscape:cy="17.103067"
     inkscape:window-width="1920"
     inkscape:window-height="991"
     inkscape:window-x="-9"
     inkscape:window-y="-9"
     inkscape:window-maximized="1"
     inkscape:current-layer="layer1" />
  <defs
     id="defs2" />
  <g
     inkscape:label="Layer 1"
     inkscape:groupmode="layer"
     id="layer1"
     transform="translate(-28.389727,-31.973081)">
    <g
       aria-label="C4 Online"
       id="text790"
       style="font-size:38.8056px;font-family:roboto;-inkscape-font-specification:roboto;fill:#7474f1;stroke:#000000">
      <path
         d="m 38.003737,45.793557 q -2.557986,4.547531 -2.557986,8.431881 0,2.766415 1.250571,3.960142 1.269519,1.193727 4.206467,1.193727 h 10.535113 q 2.614831,0 2.614831,1.781116 0,1.288467 -0.928454,2.008493 -0.909507,0.738974 -2.576935,0.738974 H 39.557477 q -2.747466,0 -4.395947,-0.757922 -2.292713,-1.061091 -3.600128,-3.278012 -1.307416,-2.197974 -1.307416,-5.021232 0,-3.78961 2.311662,-9.057167 h -1.06109 -0.49265 q -2.122181,0 -2.122181,-1.819012 0,-1.136883 0.87161,-1.913753 0.87161,-0.795818 2.122181,-0.795818 h 0.511598 2.747466 q 1.705325,-2.842207 4.585428,-5.475985 3.675921,-3.315908 7.939231,-3.315908 2.804311,0 4.642272,1.724272 1.83796,1.724272 1.83796,4.395947 0,3.808557 -3.543285,5.835998 -2.406402,1.364259 -7.65501,1.364259 z m 2.823259,-4.528583 h 3.675921 q 4.718064,0 4.718064,-2.52009 0,-0.795818 -0.625286,-1.288467 -0.606337,-0.511597 -1.553739,-0.511597 -1.459,0 -3.145376,1.174779 -1.686376,1.174778 -3.069584,3.145375 z"
         style="font-family:'Harlow Solid Italic';-inkscape-font-specification:'Harlow Solid Italic, ';fill:#fdfdff"
         id="path790" />
      <path
         d="m 65.497352,49.677907 h 1.061091 q 2.406402,0 2.406402,1.705324 0,1.155831 -0.852662,1.819013 -0.852663,0.644233 -2.368506,0.644233 h -1.951649 l -1.004247,2.482194 -0.208428,0.530545 q -0.890558,2.14113 -2.785363,2.14113 -0.814766,0 -1.383207,-0.530546 -0.568442,-0.530545 -0.568442,-1.288467 0,-0.606337 0.49265,-1.83796 l 0.606337,-1.496896 H 55.03803 q -1.629532,0 -2.557986,-0.757922 -0.928454,-0.77687 -0.928454,-2.122181 0,-1.269519 0.852662,-2.235869 l 0.738974,-0.757922 9.436127,-10.118257 q 2.501142,-2.671675 4.452791,-2.671675 1.231623,0 2.046389,0.795818 0.833714,0.77687 0.833714,1.951649 0,0.852662 -0.568441,2.273766 z m -4.8507,0 3.448545,-7.730803 -6.953933,7.730803 z"
         style="font-family:'Harlow Solid Italic';-inkscape-font-specification:'Harlow Solid Italic, ';fill:#fdfdff"
         id="path792" />
      <path
         d="m 82.645335,45.793557 h -0.947402 q -2.633779,0 -2.633779,-1.800064 0,-1.288467 0.909506,-2.008493 0.928455,-0.720026 2.595883,-0.720026 h 2.652726 l 0.530546,-0.720026 q 5.892842,-8.052919 11.842529,-8.052919 2.955896,0 4.831756,1.705324 1.87585,1.705324 1.87585,4.395947 0,3.789609 -3.56223,5.835998 -2.368506,1.364259 -7.105518,1.364259 h -5.684414 q -2.804311,5.305453 -2.804311,9.01927 0,2.084286 1.098987,3.334857 1.098986,1.250571 2.917999,1.250571 2.52009,0 5.002284,-2.955896 2.482194,-2.955895 3.675921,-7.408686 l 0.303169,-1.136883 q 0.625285,-2.330609 2.501143,-2.330609 1.00425,0 1.62953,0.738974 0.64423,0.738973 0.64423,1.913752 0,3.713817 -3.183267,8.772946 -4.433843,7.067621 -10.686698,7.067621 -3.88435,0 -6.366544,-2.61483 -2.463246,-2.595883 -2.463246,-6.688661 0,-3.865401 2.42535,-8.962426 z m 8.261348,-4.528583 h 3.694869 q 4.699116,0 4.699116,-2.557986 0,-0.757922 -0.625286,-1.250571 -0.606337,-0.511597 -1.55374,-0.511597 -1.458999,0 -3.126427,1.15583 -1.667428,1.155831 -3.088532,3.164324 z"
         style="font-family:'Harlow Solid Italic';-inkscape-font-specification:'Harlow Solid Italic, ';fill:#fdfdff"
         id="path794" />
      <path
         d="m 118.17292,54.604399 h 2.27377 q 2.4064,0 2.4064,1.686376 0,1.155831 -0.85266,1.800065 -0.85267,0.644233 -2.34956,0.644233 h -3.96014 q -1.15583,0 -1.95165,-0.701078 -0.77687,-0.701077 -0.77687,-1.762168 0,-0.644234 0.53054,-1.932701 l 1.66743,-4.130674 q 0.26527,-0.644233 0.28422,-1.042142 0.019,-0.454754 -0.37896,-0.77687 -0.37896,-0.322117 -0.9853,-0.322117 -1.95165,0 -3.14537,2.936947 l -2.23587,5.494934 q -1.00425,2.501142 -2.99379,2.501142 -0.81477,0 -1.38321,-0.492649 -0.56844,-0.49265 -0.56844,-1.212675 0,-0.530546 0.30317,-1.26952 l 0.20842,-0.511597 3.82751,-9.436127 q 0.73897,-1.83796 2.52009,-1.83796 1.459,0 2.08428,1.288467 2.02745,-1.55374 3.86541,-1.55374 1.78111,0 2.93694,1.023194 1.15583,1.023195 1.15583,2.595883 0,0.87161 -0.41685,1.913752 z"
         style="font-family:'Harlow Solid Italic';-inkscape-font-specification:'Harlow Solid Italic, ';fill:#fdfdff"
         id="path796" />
      <path
         d="m 128.63224,54.604399 h 1.98954 q 2.40641,0 2.40641,1.686376 0,1.155831 -0.85267,1.800065 -0.83371,0.644233 -2.34955,0.644233 h -3.41065 q -1.40216,0 -2.21692,-0.663182 -0.81477,-0.663181 -0.81477,-1.781116 0,-0.587389 0.54949,-1.951649 l 7.65501,-18.834358 0.20843,-0.511597 q 0.87161,-2.122181 2.78537,-2.122181 0.79581,0 1.34531,0.530545 0.56844,0.530545 0.56844,1.269519 0,0.568441 -0.28422,1.288467 l -0.20843,0.511597 z"
         style="font-family:'Harlow Solid Italic';-inkscape-font-specification:'Harlow Solid Italic, ';fill:#fdfdff"
         id="path798" />
      <path
         d="m 139.12946,54.604399 h 2.14113 q 2.38745,0 2.38745,1.686376 0,1.155831 -0.85266,1.800065 -0.83371,0.644233 -2.34956,0.644233 h -3.01274 q -1.66743,0 -2.63378,-0.68213 -0.9474,-0.682129 -0.9474,-1.856908 0,-0.625286 0.39791,-1.591636 l 3.12643,-7.692907 0.20843,-0.530545 q 0.87161,-2.141129 2.80431,-2.141129 0.79582,0 1.36426,0.530545 0.58739,0.530545 0.58739,1.269519 0,0.606337 -0.5116,1.856908 z m 2.50114,-16.409008 q 1.09899,0 1.85691,0.77687 0.77687,0.757921 0.77687,1.856908 0,1.098987 -0.77687,1.875857 -0.75792,0.757922 -1.85691,0.757922 -1.09899,0 -1.87586,-0.757922 -0.75792,-0.77687 -0.75792,-1.875857 0,-1.098987 0.75792,-1.856908 0.77687,-0.77687 1.87586,-0.77687 z"
         style="font-family:'Harlow Solid Italic';-inkscape-font-specification:'Harlow Solid Italic, ';fill:#fdfdff"
         id="path800" />
      <path
         d="m 158.41857,54.604399 h 2.27377 q 2.4064,0 2.4064,1.686376 0,1.155831 -0.85266,1.800065 -0.85267,0.644233 -2.34956,0.644233 h -3.96014 q -1.15583,0 -1.95165,-0.701078 -0.77687,-0.701077 -0.77687,-1.762168 0,-0.644234 0.53054,-1.932701 l 1.66743,-4.130674 q 0.26527,-0.644233 0.28422,-1.042142 0.0189,-0.454754 -0.37896,-0.77687 -0.37896,-0.322117 -0.9853,-0.322117 -1.95165,0 -3.14537,2.936947 l -2.23587,5.494934 q -1.00425,2.501142 -2.99379,2.501142 -0.81477,0 -1.38321,-0.492649 -0.56844,-0.49265 -0.56844,-1.212675 0,-0.530546 0.30317,-1.26952 l 0.20843,-0.511597 3.8275,-9.436127 q 0.73897,-1.83796 2.52009,-1.83796 1.459,0 2.08429,1.288467 2.02744,-1.55374 3.8654,-1.55374 1.78111,0 2.93694,1.023194 1.15584,1.023195 1.15584,2.595883 0,0.87161 -0.41686,1.913752 z"
         style="font-family:'Harlow Solid Italic';-inkscape-font-specification:'Harlow Solid Italic, ';fill:#fdfdff"
         id="path802" />
      <path
         d="m 168.34735,53.183295 q 0,1.421104 2.14113,1.421104 h 5.62757 q 2.38746,0 2.38746,1.686376 0,1.155831 -0.85267,1.800065 -0.83371,0.644233 -2.34955,0.644233 h -5.3623 q -2.99379,0 -4.56648,-1.477948 -1.55374,-1.477947 -1.55374,-4.320154 0,-3.656973 2.46325,-6.3097 2.48219,-2.652726 5.89284,-2.652726 2.48219,0 3.97909,1.307415 1.51584,1.288467 1.51584,3.410648 0,2.557987 -2.08428,3.78961 -1.15583,0.701077 -3.44855,0.701077 z m 0.90951,-3.448544 h 2.08428 q 2.02745,0 1.9706,-0.890558 -0.0568,-1.004247 -1.30741,-1.004247 -1.74322,0 -2.74747,1.894805 z"
         style="font-family:'Harlow Solid Italic';-inkscape-font-specification:'Harlow Solid Italic, ';fill:#fdfdff"
         id="path804" />
    </g>
    <path
       style="fill:#ffffff;fill-opacity:1;stroke:#000000;stroke-width:0.7;stroke-dasharray:none;stroke-dashoffset:0;stroke-opacity:1"
       d="M 186.1791,69.447759 C 145.54477,57.257463 94.197765,64.645521 82.007465,68.708955 69.817165,72.772386 120.05596,58.36567 186.1791,69.447759 Z"
       id="path5409" />
  </g>
</svg>
